<?xml version="1.0" encoding="utf-8"?>
<svg version="1.1" xmlns="http://www.w3.org/2000/svg" xmlns:xlink="http://www.w3.org/1999/xlink" x="0px" y="0px" viewBox="0 0 256 256" enable-background="new 0 0 256 256" xml:space="preserve" opacity="0.5">
<g><g><g><path fill="#ccc" d="M115.5,35.1c-17.7,2-35.8,8.8-51.8,19.3C40.1,70,19.4,95.1,11.8,117.4c-1.6,4.8-1.8,5.6-1.8,10.6c0,5,0.1,5.9,1.8,10.6c7,20.5,25.5,43.9,47,59.5c15.8,11.4,32.7,18.7,50.5,21.9c7.5,1.3,21.8,1.8,29.6,1c28.3-2.9,55.5-16.9,77.4-39.7c17.1-17.7,29.7-40.4,29.7-53.3c0-10-7.9-26.5-20.2-42.4c-4.6-6-17.1-18.6-22.7-23.1c-20.2-15.9-41.2-25-63.5-27.4C134.3,34.5,120.7,34.6,115.5,35.1z M146.2,50c19.5,4,37.5,13.5,54.1,28.6c16.6,15.1,31.9,38.7,31.9,49.5c0,9.6-12.7,30.3-27.7,45.3c-17.3,17.2-36.7,28.1-58.3,32.7c-5.8,1.2-7,1.3-18.1,1.3c-10.6,0-12.5-0.1-17.6-1.1c-21.5-4.2-42-15.6-59.3-32.9c-15.1-15.1-27.6-35.6-27.6-45.3c0-3.2,2.3-10,5.3-15.6c12-22.4,33.9-43.5,56.6-54.3c9.2-4.4,21.9-8.1,31.9-9.3c0.9-0.1,6.5-0.1,12.4,0C138.9,48.8,141.3,49,146.2,50z"/>
<path fill="#ccc" d="M122.2,72.7c-8.1,0.9-16.6,3.8-23.9,8.2c-5.7,3.5-14.1,12-17.6,17.7c-12.2,19.8-11,44.9,3,63.2C87,165.9,94,172.3,98.4,175c17.3,10.8,39.5,11.2,56.8,1.2c4.9-2.8,6.8-4.3,11.1-8.5c11.2-10.8,16.9-24.3,16.9-40.1c0-23.8-15-44.6-38-52.5C138.6,73,129.5,72,122.2,72.7z M137.8,87.5c15.1,3.6,27.1,15.8,30.9,31.3c1,4.3,1,14,0,18.4c-3.7,15.4-15.4,27.2-30.8,31.3c-5.5,1.5-14.2,1.5-19.8,0c-15.3-4-27.2-16-30.9-31.4c-1.1-4.4-1.1-14,0-18.4c4.8-19.8,22.8-33.5,42.7-32.4C132,86.4,135.6,87,137.8,87.5z"/></g></g></g>
</svg>